{"title":"The Smurfs-2 (2013)1080p BDRip DD5.1-DGrea8","uid":9190089,"size":2082673562,"categoryP":"video","categoryS":"hd___movies","magnet":"?xt=urn:btih:10b8bf3d77d29e56fcee29c822d5305505e41784&amp;dn=The+Smurfs-2+%282013%291080p+BDRip+DD5.1-DGrea8&amp;tr=udp%3A%2F%2Ftracker.openbittorrent.com%3A80&amp;tr=udp%3A%2F%2Fopen.demonii.com%3A1337&amp;tr=udp%3A%2F%2Ftracker.coppersurfer.tk%3A6969&amp;tr=udp%3A%2F%2Fexodus.desync.com%3A6969","seeders":6,"leechers":1,"uploader":"DGrea8","files":-1,"time":1384371914,"description":"                 The Smurfs-2 (2013)1080p BDRip DD5.1-DGrea8\n\n\nStoryline:-\n\nThe evil wizard Gargamel creates a couple of mischievous Smurf-like creatures called the Naughties that he hopes will let him harness the all-powerful, magical Smurf-essence. But when he discovers that only a real Smurf can give him what he wants, and only a secret spell that Smurfette knows can turn the Naughties into real Smurfs, Gargamel kidnaps Smurfette and brings her to Paris, where he has been winning the adoration of millions as the worldÂ¹s greatest sorcerer. It's up to Papa, Clumsy, Grouchy, and Vanity to return to our world, reunite with their human friends Patrick and Grace Winslow, and rescue her! Will Smurfette, who has always felt different from the other Smurfs, find a new connection with the Naughties Vexy and Hackus or will the Smurfs convince her that their love for her is True Blue?\n\n\n\nCast Info:. \n\nHank Azaria\t ...\tGargamel\nNeil Patrick Harris\t ...\tPatrick\nBrendan Gleeson\t ...\tVictor\nJayma Mays\t ...\tGrace\nJacob Tremblay\t ...\tBlue\nNancy O'Dell\t ...\tHerself\nKarim Babin\t ...\tRoom Service Waiter\nGaston Morrison\t ...\tNew York Taxi Driver\nJocelyn Blanchard\t ...\tToad Man\nErika Rosenbaum\t ...\tPregnant Mom\nCarolina Bartczak\t ...\tPeanut Mom\nJames A. Woods\t ...\tPeanut Father\nHenri Pardo\t ...\tFather-to-Be\nVanessa Matsui\t ...\tMother with Camera\nDusan Dukic\t ...\tCurious Dad\n\n\nGeneral Info:. \n\nDirector:Raja Gosnell\nWriters: J. David Stem (screenplay), David N. Weiss (screenplay)\nStars: Neil Patrick Harris, Jayma Mays, Katy Perry\nRelease Date: 31 July 2013 (USA)\nGenres:Animation | Comedy | Family\n\n\nVideo Info:. \n\nVideo\nID : 1\nFormat : AVC\nCodec ID/Info : Advanced Video Coding\nDuration : 1h 44mn\nBit rate : 2 151 Kbps\nOverall bit rate : 2 248 Kbps\nMaximum bit rate : 12.6 Mbps\nWidth : 1 920 pixels\nHeight : 1 036 pixels\nDisplay aspect ratio : 1.85:1\nFrame rate mode : Constant\nFrame rate : 23.976 fps\nBit depth : 8 bits\nScan type : Progressive\nStream size : 1.58 GiB (96%)\n\n\nAudio Info:. \n\nAudio\nID : 2\nFormat : AC-3\nFormat/Info : Audio Coding 3\nMode extension : CM (complete main)\nFormat settings, Endianness : Big\nMuxing mode : Header stripping\nCodec ID : A_AC3\nDuration : 1h 44mn\nBit rate mode : Constant\nBit rate : 448 Kbps\nChannel(s) : 6 channels\nChannel positions : Front: L C R, Side: L R, LFE\nSampling rate : 48.0 KHz\nBit depth : 16 bits\nCompression mode : Lossy\nStream size : 336 MiB (17%)\nLanguage : English\n\nSubtitle : English\n\n\n\nScreen Shoots:-\n   &lt;a href=&quot;\nhttp://img15.imageshack.us/img15/7797/bsd3.jpg&quot; rel=&quot;nofollow&quot; target=&quot;_NEW&quot;&gt;\nhttp://img15.imageshack.us/img15/7797/bsd3.jpg&lt;/a&gt;\n &lt;a href=&quot;\nhttp://img15.imageshack.us/img15/2817/71j9.jpg&quot; rel=&quot;nofollow&quot; target=&quot;_NEW&quot;&gt;\nhttp://img15.imageshack.us/img15/2817/71j9.jpg&lt;/a&gt;\n\n\n\nNote:-- Check The Torrent\n\n\nCheck The Sample Video In This Torrent\t\t","torrent":{"xt":"urn:btih:10b8bf3d77d29e56fcee29c822d5305505e41784","amp;dn":"The+Smurfs-2+%282013%291080p+BDRip+DD5.1-DGrea8","amp;tr":["udp%3A%2F%2Ftracker.openbittorrent.com%3A80","udp%3A%2F%2Fopen.demonii.com%3A1337","udp%3A%2F%2Ftracker.coppersurfer.tk%3A6969","udp%3A%2F%2Fexodus.desync.com%3A6969"],"infoHash":"10b8bf3d77d29e56fcee29c822d5305505e41784","infoHashBuffer":{"type":"Buffer","data":[16,184,191,61,119,210,158,86,252,238,41,200,34,213,48,85,5,228,23,132]},"announce":[],"urlList":[]}}